<svg width="19" height="18" viewBox="0 0 19 18" fill="none" xmlns="http://www.w3.org/2000/svg">
<path d="M17.1563 1.2334C15.1338 -0.630895 12.1094 -0.321519 10.2316 1.77581L9.50054 2.59546L8.76948 1.77983C7.25541 0.0842872 4.20128 -0.936254 1.84481 1.2334C-0.485682 3.38698 -0.608144 7.25218 1.47742 9.58255L8.65815 17.6103C8.88823 17.8674 9.19253 18 9.49683 18C9.80113 18 10.1054 17.8714 10.3355 17.6103L17.5162 9.58255C19.6092 7.25218 19.4868 3.38698 17.1563 1.2334V1.2334ZM16.6701 8.69058L9.51539 16.7183L2.33095 8.69058C0.905932 7.0995 0.609055 4.066 2.61669 2.21376C4.6503 0.333395 7.04017 1.69546 7.91596 2.67582L9.50054 4.4477L11.0851 2.67582C11.9461 1.71153 14.3582 0.345449 16.3844 2.21376C18.3883 4.06198 18.0952 7.09548 16.6701 8.69058Z" fill="black"/>
</svg>
