<svg width="18" height="18" viewBox="0 0 18 18" fill="none" xmlns="http://www.w3.org/2000/svg">
<path d="M17.2497 2.25H4.03999L3.77971 0.688254C3.71318 0.289195 3.40346 0 3.04256 0H0.374999C0.167906 0 0 0.188895 0 0.421875V0.703125C0 0.936105 0.167906 1.125 0.374999 1.125H2.835L5.02021 14.2364C4.69702 14.636 4.49999 15.1671 4.49999 15.75C4.49999 16.9926 5.39543 18 6.49999 18C7.60455 18 8.49999 16.9926 8.49999 15.75C8.50038 15.3549 8.40784 14.9668 8.23177 14.625H12.7682C12.5922 14.9668 12.4996 15.3549 12.5 15.75C12.5 16.9926 13.3954 18 14.5 18C15.6046 18 16.5 16.9926 16.5 15.75C16.5 15.1174 16.2677 14.5462 15.8941 14.1375C15.8132 13.7774 15.5237 13.5 15.1665 13.5H5.91499L5.53999 11.25H15.8956C16.2509 11.25 16.5574 10.9696 16.6299 10.5783L17.984 3.26584C18.081 2.74187 17.7254 2.25 17.2497 2.25ZM7.49999 15.75C7.49999 16.3703 7.05139 16.875 6.49999 16.875C5.94858 16.875 5.49999 16.3703 5.49999 15.75C5.49999 15.1297 5.94858 14.625 6.49999 14.625C7.05139 14.625 7.49999 15.1297 7.49999 15.75ZM14.5 16.875C13.9486 16.875 13.5 16.3703 13.5 15.75C13.5 15.1297 13.9486 14.625 14.5 14.625C15.0514 14.625 15.5 15.1297 15.5 15.75C15.5 16.3703 15.0514 16.875 14.5 16.875ZM15.6924 10.125H5.35249L4.22749 3.375H16.9423L15.6924 10.125Z" fill="black"/>
</svg>
