<svg width="17" height="18" viewBox="0 0 17 18" fill="none" xmlns="http://www.w3.org/2000/svg">
<path d="M8.5019 5.06568C6.08985 5.06568 4.14428 7.02313 4.14428 9.4499C4.14428 11.8767 6.08985 13.8341 8.5019 13.8341C10.9139 13.8341 12.8595 11.8767 12.8595 9.4499C12.8595 7.02313 10.9139 5.06568 8.5019 5.06568ZM8.5019 12.3002C6.94317 12.3002 5.66888 11.022 5.66888 9.4499C5.66888 7.87784 6.93938 6.59958 8.5019 6.59958C10.0644 6.59958 11.3349 7.87784 11.3349 9.4499C11.3349 11.022 10.0606 12.3002 8.5019 12.3002ZM14.0542 4.88634C14.0542 5.45488 13.5991 5.90895 13.0378 5.90895C12.4727 5.90895 12.0214 5.45106 12.0214 4.88634C12.0214 4.32162 12.4765 3.86374 13.0378 3.86374C13.5991 3.86374 14.0542 4.32162 14.0542 4.88634ZM16.9403 5.92421C16.8758 4.55438 16.5648 3.34099 15.5674 2.34128C14.5737 1.34157 13.3677 1.02868 12.0062 0.959999C10.603 0.87987 6.39704 0.87987 4.99381 0.959999C3.63609 1.02487 2.43006 1.33775 1.43263 2.33746C0.435193 3.33717 0.127998 4.55056 0.0597323 5.92039C-0.0199108 7.3322 -0.0199108 11.5638 0.0597323 12.9756C0.124205 14.3454 0.435193 15.5588 1.43263 16.5585C2.43006 17.5582 3.63229 17.8711 4.99381 17.9398C6.39704 18.0199 10.603 18.0199 12.0062 17.9398C13.3677 17.8749 14.5737 17.5621 15.5674 16.5585C16.561 15.5588 16.872 14.3454 16.9403 12.9756C17.0199 11.5638 17.0199 7.33601 16.9403 5.92421ZM15.1274 14.4904C14.8316 15.2383 14.259 15.8145 13.5118 16.1159C12.393 16.5623 9.73826 16.4593 8.5019 16.4593C7.26553 16.4593 4.60697 16.5585 3.49197 16.1159C2.74863 15.8183 2.17596 15.2421 1.87635 14.4904C1.43263 13.3648 1.53503 10.6938 1.53503 9.4499C1.53503 8.20599 1.43642 5.53119 1.87635 4.40938C2.17217 3.66151 2.74484 3.08534 3.49197 2.7839C4.61076 2.33746 7.26553 2.44049 8.5019 2.44049C9.73826 2.44049 12.3968 2.34128 13.5118 2.7839C14.2552 3.08152 14.8278 3.65769 15.1274 4.40938C15.5712 5.53501 15.4688 8.20599 15.4688 9.4499C15.4688 10.6938 15.5712 13.3686 15.1274 14.4904Z" fill="black"/>
</svg>
