<svg width="19" height="14" viewBox="0 0 19 14" fill="none" xmlns="http://www.w3.org/2000/svg">
<path d="M18.567 0.949375C18.6975 0.4025 18.567 0 17.9391 0H15.8616C15.3326 0 15.0892 0.345625 14.9587 0.730625C14.9587 0.730625 13.9005 3.92875 12.405 6.0025C11.9218 6.60187 11.6996 6.79437 11.4351 6.79437C11.3046 6.79437 11.1035 6.60187 11.1035 6.055V0.949375C11.1035 0.293125 10.9554 0 10.518 0H7.25184C6.92029 0 6.72277 0.30625 6.72277 0.590625C6.72277 1.21187 7.47053 1.35625 7.54813 3.10625V6.90375C7.54813 7.735 7.4282 7.88812 7.16366 7.88812C6.45823 7.88812 4.74403 4.67688 3.72821 1.00188C3.52363 0.28875 3.32259 0 2.78998 0H0.712487C0.119923 0 0 0.345625 0 0.730625C0 1.41312 0.705432 4.80375 3.28379 9.28375C5.00151 12.3419 7.42115 14 9.6221 14C10.9448 14 11.107 13.6325 11.107 12.9981C11.107 10.0756 10.9871 9.8 11.6502 9.8C11.9571 9.8 12.4862 9.9925 13.7207 11.4669C15.1315 13.2169 15.3643 14 16.1544 14H18.2319C18.8245 14 19.1243 13.6325 18.9514 12.9062C18.5564 11.3794 15.8863 8.23812 15.7664 8.02812C15.4595 7.53813 15.5477 7.31938 15.7664 6.88188C15.7699 6.8775 18.306 2.45 18.567 0.949375Z" fill="black"/>
</svg>
