<svg width="19" height="15" viewBox="0 0 19 15" fill="none" xmlns="http://www.w3.org/2000/svg">
<path d="M18.603 2.34699C18.3845 1.42316 17.7406 0.695586 16.9232 0.448672C15.4415 0 9.5 0 9.5 0C9.5 0 3.55856 0 2.07682 0.448672C1.25936 0.695625 0.615539 1.42316 0.397023 2.34699C0 4.02148 0 7.51516 0 7.51516C0 7.51516 0 11.0088 0.397023 12.6833C0.615539 13.6071 1.25936 14.3044 2.07682 14.5513C3.55856 15 9.5 15 9.5 15C9.5 15 15.4414 15 16.9232 14.5513C17.7406 14.3044 18.3845 13.6071 18.603 12.6833C19 11.0088 19 7.51516 19 7.51516C19 7.51516 19 4.02148 18.603 2.34699ZM7.5568 10.6871V4.34316L12.5227 7.51523L7.5568 10.6871Z" fill="black"/>
</svg>
